<svg xmlns="http://www.w3.org/2000/svg" viewBox="294 168 256.5 128" fill="#f4faf7" stroke="#f4faf7" stroke-width="2.5" stroke-linejoin="round" stroke-linecap="round"><path d="M361 170.7c0 .5 1.6 4.9 3.6 9.9 3.8 9.7 4.6 10.4 11.9 10.4 1.8 0 3 1.7 6.7 9.7 2.5 5.4 6.2 14 8.3 19 2.7 6.6 4.3 9.3 5.5 9.3s4.3-6 11.7-23.3c6.7-15.6 10.5-23.3 11.7-23.5 1.2-.3 2.8 2.1 6.2 9.5 2.5 5.4 5.5 12 6.6 14.7 1 2.7 2.7 6.8 3.7 9 1 2.3 2.8 6.2 3.9 8.8 2.3 5.2 4.7 6.2 6.2 2.5.5-1.2 3.5-8.1 6.6-15.2 8.1-18.7 7.8-17.5 4.9-17.5-1.6 0-2.6.7-3.1 2.2-.4 1.3-2 5.2-3.7 8.8-1.6 3.6-3.8 8.5-4.9 10.9-1.1 2.6-2.2 4.1-2.7 3.5-.8-.8-13.3-28.9-17.1-38.2-1.2-3.2-1.5-3.3-6.3-3l-4.9.3-4 9c-2.1 4.9-6.2 14.3-8.9 20.7-2.8 6.5-5.5 11.8-5.9 11.8s-3.5-6.6-6.9-14.8c-8.2-19.3-8.1-19.2-13.6-19.2-4.1 0-4.6-.3-6.4-3.8-4.1-8.1-4.1-8.2 3.4-8.2 5.7 0 6.6-.2 6.1-1.6-.3-.9-.6-1.8-.6-2s-4-.4-9-.4c-4.9 0-9 .3-9 .7"/><path d="M409.3 171.2c-.6.7-4.1 8.4-7.8 17.1-6.3 14.6-6.7 15.9-5.2 17.4 1.5 1.6 1.8 1.4 3.3-2.3.9-2.1 2.6-6.2 3.8-8.9 1.2-2.8 3.8-8.5 5.7-12.7l3.4-7.8h16.3l5 11.2c2.8 6.2 6 13.5 7.1 16.1 2.1 4.8 4.3 5.8 4.9 2.4.3-1.7-10.7-27.7-13.4-31.5-1.4-2-2.4-2.2-11.8-2.2-7.1 0-10.7.4-11.3 1.2m53.4-.5c-.4.3-.7 1.2-.7 2 0 1 2.1 1.3 8.9 1.3 8.6 0 10.1-.5 10.1-3.6 0-.7-17.6-.4-18.3.3m-85.7 8.7c0 1.6 4.1 2.9 5.3 1.7 1.4-1.4-.2-3.1-2.9-3.1-1.4 0-2.4.6-2.4 1.4m82.7-.7c-.4.3-.7 1.2-.7 2 0 1 2.1 1.3 8.9 1.3 8 0 8.9-.2 9.4-2 .5-1.9 0-2-8.2-2-4.8 0-9.1.3-9.4.7"/><path d="M419.2 195.6c-.6 1.1-2.6 5.7-4.6 10.4-1.9 4.7-5.3 12.5-7.5 17.5l-4 9h-11.6l-7.9-17.8c-6.1-13.8-8.3-17.7-9.7-17.7-2.4 0-2.4 1.4.2 7 1.2 2.5 4.8 10.8 8.1 18.5s6.5 14.3 7.1 14.7c.7.4 4.5.8 8.5.8h7.3l3.3-7.3c1.8-3.9 5.3-11.6 7.6-17l4.3-9.8 2.1 3.8c1.2 2.1 2.8 5.4 3.6 7.3 3.5 9.1 9.4 21.6 10.4 22.3.6.4 4.4.6 8.4.5l7.4-.3 7.9-17.8c4.3-9.8 7.9-18 7.9-18.3s-1-.4-2.2-.2c-1.7.2-3.5 3.4-9.2 16l-7.1 15.8h-11.3l-1.7-4.3c-4.4-11-13.9-32.3-15.1-33.6-1-1.1-1.4-1-2.2.5m-123.2 65c0 1 1.4 6.3 3.1 11.9 5 16.7 5.2 17 7.9 17 2.1 0 2.6-.7 3.6-4.5 1.8-7.8 4.7-17 5.3-17 .3 0 2.2 4.8 4.1 10.8 3.2 9.7 3.8 10.7 6 10.7 2.1 0 2.6-.7 3.7-5.5.8-3 2.5-9 3.9-13.3 1.3-4.3 2.4-8.7 2.4-9.8 0-2.1-2.8-2.7-3.5-.7-.2.7-1.8 6.2-3.6 12.2-3.7 12-3.3 12.1-7.3-1.4-2.7-9.1-4.7-12.7-6.3-11.7-.6.4-2.5 5.3-4.3 10.9-1.8 5.7-3.6 10.7-4 11.1-.4.5-1.5-1.7-2.5-5-3.6-12.7-5.2-16.8-6.8-17.1-1.1-.2-1.7.3-1.7 1.4m79.8 5.1c-.6 12.7.3 24.3 1.8 24.3 1 0 1.4-1.4 1.4-5.2v-5.2l5.4 5.3c3.6 3.6 6 5.2 7.4 4.9 1.8-.3 1.4-1-3.4-6.3l-5.4-6 4.5-4.3c2.5-2.4 4.5-4.5 4.5-4.8 0-1.5-3.9.1-7.6 3.1-2.3 1.9-4.5 3.5-4.8 3.5s-.6-3.5-.8-7.7c-.4-10-2.5-11.2-3-1.6m20.7-5.5c-.3.8-.4 7.7-.3 15.3l.3 14h8.4c5.9 0 8.6-.4 8.9-1.3.2-.8-1-1.2-4.5-1.2-9.6 0-9.2.5-9.5-14.3-.2-9.3-.7-13.2-1.5-13.5-.7-.2-1.5.3-1.8 1m81.2-.6c-.4.4-.7 2.9-.7 5.6v4.9l-3.1-1.6c-6.8-3.6-13.9 1.8-13.9 10.7 0 6.6 3.8 10.8 9.7 10.8 2.2 0 4.5-.6 5.2-1.3 1.1-1 1.4-1 1.8 0 .3.7 1.3 1.3 2.4 1.3 1.9 0 1.9-.7 1.7-15.2-.3-14.1-.9-17.3-3.1-15.2m-2.8 14c5.8 7.4-2.4 17.9-8.9 11.4-2.5-2.5-2.7-9.5-.3-12.2s6.8-2.3 9.2.8m19.6-13.4c-.3.8-.4 7.7-.3 15.3.3 12.2.5 14 2 14.3 1.4.3 1.7-.7 2-6l.3-6.3 7.1-.3c8.1-.3 8.4 0 8.4 8.5 0 3 .4 4.3 1.4 4.3 2.7 0 2.6-29.8-.1-30.8-.9-.3-1.3 1.2-1.3 5.1 0 8.3-.3 8.7-6.9 8.7-7.5 0-8.9-1.2-9.3-7.9-.3-5.2-2.1-8-3.3-4.9m32.8.7c-8.7 5.5-9.3 19.7-1.1 26.6 2.7 2.2 3.9 2.6 8.8 2.4 4.7-.2 6 .1 7.8 1.9 3.8 3.8 5.3 2.6 3.1-2.2-1-2.1-.9-3 .7-5.3 1.4-2.1 1.9-4.6 1.9-10 0-7-.1-7.4-3.7-10.9-3.1-3.2-4.4-3.8-9-4.1-4.1-.3-6 .1-8.5 1.6m14.3 4.4c3.2 2.8 4.4 10.8 2.4 15.7-3 7.3-14 7.9-17.6.9-.8-1.6-1.4-5.1-1.4-7.9 0-4.4.5-5.6 2.9-8.1 3.8-3.8 9.7-4 13.7-.6m-196.3 2.4c-1.2.2-3.4 1.8-4.9 3.6-2.3 2.7-2.6 3.8-2.2 8.6.6 6.9 3.8 10.1 10.1 10.1 5.2 0 8.4-2.1 10.3-6.7 3.7-8.7-3.8-17.5-13.3-15.6m8.6 5.9c5.9 7.5-3.3 18-9.9 11.4-2.5-2.5-2.7-9.5-.3-12.2 2.5-2.8 7.7-2.4 10.2.8m14.8-5c-1.6.9-2.7 1-2.7.4 0-.5-.6-1-1.4-1-1 0-1.5 2.2-2.1 8.3-.7 9.1 0 13.7 2.1 13.7 1.1 0 1.4-1.6 1.4-6.4 0-8.1 1.2-11.4 4.5-12.2 1.4-.3 2.5-1.2 2.5-1.9 0-2.2-1.3-2.4-4.3-.9m52.8-.7c-7.5 3.1-9.1 15.1-2.7 20.1 2.2 1.8 3.6 2.1 7.6 1.7 6.5-.6 9.6-4.1 9.6-10.7 0-5.4-2-8.7-6.6-10.6-3.7-1.6-5-1.6-7.9-.5m8.6 5c4.8 3.9 2.1 14.1-3.8 14.1-3.8 0-6-1.7-7.2-5.3-2.7-8 4.8-13.9 11-8.8m15.4-5.2c-2.6.7-5.5 3.3-5.5 5 0 1.8 2.5 1.7 4-.2 1.5-1.8 6.1-2 7.8-.3 2.3 2.3 1.1 3.7-4.4 4.8-8.7 1.8-11.9 6.5-7.4 11 2.2 2.2 7.8 2.7 11 1 1.3-.7 2.1-.7 2.5 0 .3.5 1.3 1 2.1 1 1.1 0 1.4-1.8 1.4-8.8 0-7.9-.2-9.1-2.2-11-2.5-2.3-6.2-3.3-9.3-2.5m7.5 13.7c0 4.5-7.2 7.4-10 4.1-1.9-2.3-.6-4.2 3.7-5.3 5.8-1.5 6.3-1.4 6.3 1.2"/></svg>